<?xml version="1.0" encoding="UTF-8" standalone="no"?>
<!-- Uploaded to: SVG Repo, www.svgrepo.com, Generator: SVG Repo Mixer Tools -->

<svg
   fill="#000000"
   height="20.084423"
   width="20.144737"
   version="1.1"
   id="Layer_1"
   viewBox="0 0 9.2759716 9.248199"
   xml:space="preserve"
   sodipodi:docname="add_user.svg"
   inkscape:version="1.2.2 (732a01da63, 2022-12-09)"
   inkscape:export-filename="add_user.png"
   inkscape:export-xdpi="96"
   inkscape:export-ydpi="96"
   xmlns:inkscape="http://www.inkscape.org/namespaces/inkscape"
   xmlns:sodipodi="http://sodipodi.sourceforge.net/DTD/sodipodi-0.dtd"
   xmlns="http://www.w3.org/2000/svg"
   xmlns:svg="http://www.w3.org/2000/svg"><defs
   id="defs102" /><sodipodi:namedview
   id="namedview100"
   pagecolor="#ffffff"
   bordercolor="#000000"
   borderopacity="0.25"
   inkscape:showpageshadow="2"
   inkscape:pageopacity="0.0"
   inkscape:pagecheckerboard="0"
   inkscape:deskcolor="#d1d1d1"
   showgrid="false"
   inkscape:zoom="16.58"
   inkscape:cx="14.535585"
   inkscape:cy="17.732208"
   inkscape:window-width="1920"
   inkscape:window-height="1009"
   inkscape:window-x="-8"
   inkscape:window-y="-8"
   inkscape:window-maximized="1"
   inkscape:current-layer="Layer_1" />
<g
   id="XMLID_91_"
   color="#000000"
   transform="matrix(0.025,0,0,0.02829277,0,-0.60645552)">
	<path
   id="XMLID_92_"
   d="m 293.373,226.936 h -15 v -15 c 0,-8.284 -6.716,-15 -15,-15 -8.284,0 -15,6.716 -15,15 v 15 h -15 c -8.284,0 -15,6.716 -15,15 0,8.284 6.716,15 15,15 h 15 v 15 c 0,8.284 6.716,15 15,15 8.284,0 15,-6.716 15,-15 v -15 h 15 c 8.284,0 15,-6.716 15,-15 0,-8.284 -6.716,-15 -15,-15 z" />
	<path
   id="XMLID_93_"
   d="m 263.373,136.936 c -34.485,0 -65.14,16.713 -84.293,42.463 -7.653,-1.61 -15.582,-2.463 -23.707,-2.463 -8.643,0 -17.064,0.965 -25.165,2.781 -38.121,8.543 -69.149,36.066 -82.606,72.092 -4.669,12.5 -7.229,26.02 -7.229,40.127 0,8.284 6.716,15 15,15 h 125.596 c 19.246,24.348 49.03,40 82.404,40 57.898,0 105,-47.102 105,-105 0,-57.898 -47.102,-105 -105,-105 z m 0,180 c -13.592,0 -26.339,-3.652 -37.344,-10 -22.48,-12.967 -37.656,-37.236 -37.656,-65 0,-20.01 7.892,-38.199 20.708,-51.662 13.67,-14.359 32.946,-23.338 54.292,-23.338 41.355,0 75,33.645 75,75 0,41.355 -33.645,75 -75,75 z" />
	<path
   id="XMLID_104_"
   d="m 32.622,84.187 c 0,23.666 18.367,43.109 41.594,44.857 C 66.834,115.742 62.622,100.448 62.622,84.187 62.622,67.926 66.834,52.631 74.216,39.33 50.989,41.077 32.622,60.521 32.622,84.187 Z" />
	<path
   id="XMLID_105_"
   d="M 93.489,160.825 C 88.319,159.748 83.007,159.186 77.622,159.186 34.821,159.186 0,194.008 0,236.809 c 0,8.284 6.716,15 15,15 h 1.025 c 11.602,-40.228 40.193,-73.322 77.464,-90.984 z" />
	<path
   id="XMLID_106_"
   d="m 104.216,47.915 c -7.289,10.25 -11.594,22.764 -11.594,36.271 0,13.507 4.305,26.021 11.594,36.271 11.383,16.006 30.065,26.478 51.157,26.478 34.601,0 62.75,-28.149 62.75,-62.75 0,-34.601 -28.149,-62.75 -62.75,-62.75 -21.093,0.002 -39.774,10.474 -51.157,26.48 z" />
</g>
</svg>
