<?xml version="1.0" encoding="UTF-8" standalone="no"?>
<!-- Uploaded to: SVG Repo, www.svgrepo.com, Generator: SVG Repo Mixer Tools -->

<svg
   width="800"
   height="800"
   viewBox="0 0 32 32"
   enable-background="new 0 0 32 32"
   id="Editable-line"
   version="1.1"
   xml:space="preserve"
   xmlns="http://www.w3.org/2000/svg"
   xmlns:svg="http://www.w3.org/2000/svg"><defs
     id="defs134" /><path
     d="M 25,10 H 7 v 17 c 0,1.105 0.895,2 2,2 h 14 c 1.105,0 2,-0.895 2,-2 z"
     fill="none"
     id="XMLID_129_"
     stroke="#000000"
     stroke-linecap="round"
     stroke-linejoin="round"
     stroke-miterlimit="10"
     stroke-width="2" /><path
     d="M 20,7 H 12 V 5 c 0,-1.105 0.895,-2 2,-2 h 4 c 1.105,0 2,0.895 2,2 z"
     fill="none"
     id="XMLID_145_"
     stroke="#000000"
     stroke-linecap="round"
     stroke-linejoin="round"
     stroke-miterlimit="10"
     stroke-width="2" /><path
     d="M 28,10 H 4 V 8 C 4,7.448 4.448,7 5,7 h 22 c 0.552,0 1,0.448 1,1 z"
     fill="none"
     id="XMLID_146_"
     stroke="#000000"
     stroke-linecap="round"
     stroke-linejoin="round"
     stroke-miterlimit="10"
     stroke-width="2" /><line
     fill="none"
     id="XMLID_148_"
     stroke="#000000"
     stroke-linecap="round"
     stroke-linejoin="round"
     stroke-miterlimit="10"
     stroke-width="2"
     x1="16"
     x2="16"
     y1="15"
     y2="24" /><line
     fill="none"
     id="XMLID_147_"
     stroke="#000000"
     stroke-linecap="round"
     stroke-linejoin="round"
     stroke-miterlimit="10"
     stroke-width="2"
     x1="12"
     x2="12"
     y1="15"
     y2="24" /><line
     fill="none"
     id="XMLID_149_"
     stroke="#000000"
     stroke-linecap="round"
     stroke-linejoin="round"
     stroke-miterlimit="10"
     stroke-width="2"
     x1="20"
     x2="20"
     y1="15"
     y2="24" /></svg>
